<?xml version="1.0" encoding="utf-8"?>
<!-- Generator: Adobe Illustrator 18.0.0, SVG Export Plug-In . SVG Version: 6.00 Build 0)  -->
<!DOCTYPE svg PUBLIC "-//W3C//DTD SVG 1.1//EN" "http://www.w3.org/Graphics/SVG/1.1/DTD/svg11.dtd">
<svg version="1.1" id="隔离模式" xmlns="http://www.w3.org/2000/svg" xmlns:xlink="http://www.w3.org/1999/xlink" x="0px"
	 y="0px" viewBox="0 0 564 163" enable-background="new 0 0 564 163" xml:space="preserve">
<g>
	<polygon fill="#FFFFFF" points="80.451,55.844 80.451,156.553 38.424,156.553 38.424,55.844 6.236,55.844 6.236,15.268 
		112.536,15.268 112.536,55.844 	"/>
	<g>
		<g>
			<path fill="#FFFFFF" d="M220.703,109.148h-58.688c-0.898-2.967-1.346-5.692-1.346-8.176c0-3.453,0.621-6.833,1.862-10.146h19.668
				c-1.383-7.659-5.694-11.488-12.94-11.488c-4.83,0-8.764,2.054-11.799,6.157c-3.035,4.106-4.555,9.368-4.555,15.787
				c0,6.692,1.467,12.107,4.397,16.251c2.935,4.138,6.781,6.208,11.543,6.208c3.864,0,67.691,0.071,67.691,0.071v32.652
				l-68.726,0.088c-15.32,0-28.19-5.138-38.609-15.422c-10.421-10.281-15.631-23.011-15.631-38.193
				c0-15.113,5.264-27.877,15.788-38.297c10.522-10.419,23.443-15.629,38.761-15.629c14.974,0,27.552,5.089,37.729,15.268
				c10.177,10.178,15.269,22.716,15.269,37.624C221.117,103.42,220.976,105.834,220.703,109.148"/>
			<path fill="#FFFFFF" d="M310.706,52.74v40.443c-5.454,0-9.196,1.014-11.233,3.031c-2.036,2.018-3.329,6.004-3.88,11.961
				c-1.796,19.775-9.522,33.733-23.185,41.88c-7.246,4.241-17.528,6.409-30.846,6.409h-15.383v-32.652h11.761
				c6.211,0,10.643-1.187,13.301-3.751c2.653-2.567,4.19-15.208,4.605-21.644c0.553-10.468,1.535-17.824,2.949-22.068
				c1.415-4.243,4.297-8.452,8.643-12.626c7.592-7.322,18.116-10.983,31.571-10.983H310.706z"/>
			<path fill="#FFFFFF" d="M366.347,13.456v39.538h17.387V93.88h-17.387c0,8.212,1.291,13.871,3.881,16.978
				c2.587,3.104,7.329,4.656,14.229,4.656v40.677c-2.002,0.067-3.481,0.104-4.448,0.104c-8.764,0-17.026-2.037-24.791-6.109
				c-7.762-4.069-13.99-9.587-18.684-16.558c-5.933-8.902-8.898-20.704-8.898-35.399V13.456H366.347z"/>
			<path fill="#FFFFFF" d="M442.859,155.492h-38.711V52.297h38.711V155.492z"/>
			<path fill="#FFFFFF" d="M423.607,6.237c5.242,0,9.782,1.845,13.612,5.536c3.827,3.692,5.743,8.057,5.743,13.094
				c0,5.384-1.811,9.799-5.433,13.248c-3.622,3.453-8.267,5.176-13.923,5.176c-5.659,0-10.296-1.723-13.924-5.176
				c-3.621-3.449-5.432-7.864-5.432-13.248c0-5.037,1.916-9.401,5.741-13.094C413.826,8.082,418.361,6.237,423.607,6.237"/>
			<path fill="#FFFFFF" d="M555.532,155.492h-38.715V97.217c0-5.934-2.45-8.898-7.347-8.898c-4.831,0-7.244,2.965-7.244,8.898
				v58.275h-38.713v-57.55c0-13.457,4.451-24.788,13.352-34.003c8.902-9.211,19.804-13.817,32.708-13.817
				c14.765,0,26.6,5.349,35.501,16.044c6.969,8.349,10.457,19.976,10.457,34.883V155.492z"/>
			<rect x="308.631" y="52.737" fill="#FFFFFF" width="26.292" height="40.455"/>
		</g>
	</g>
</g>
</svg>
